Coordinates
version=1
nRows=7
nColumns=63
inDegrees=yes

Units are S.I. units (second, meters, Newtons, ...)
If the header above contains a line with 'inDegrees', this indicates whether rotational values are in degrees (yes) or radians (no).

endheader
time	pelvis_tilt	pelvis_list	pelvis_rotation	pelvis_tx	pelvis_ty	pelvis_tz	hip_flexion_r	hip_adduction_r	hip_rotation_r	knee_angle_r	knee_angle_r_beta	ankle_angle_r	subtalar_angle_r	mtp_angle_r	hip_flexion_l	hip_adduction_l	hip_rotation_l	knee_angle_l	knee_angle_l_beta	ankle_angle_l	subtalar_angle_l	mtp_angle_l	L5_S1_Flex_Ext	L5_S1_Lat_Bending	L5_S1_axial_rotation	L4_L5_Flex_Ext	L4_L5_Lat_Bending	L4_L5_axial_rotation	L3_L4_Flex_Ext	L3_L4_Lat_Bending	L3_L4_axial_rotation	L2_L3_Flex_Ext	L2_L3_Lat_Bending	L2_L3_axial_rotation	L1_L2_Flex_Ext	L1_L2_Lat_Bending	L1_L2_axial_rotation	L1_T12_Flex_Ext	L1_T12_Lat_Bending	L1_T12_axial_rotation	Abs_r3	Abs_r2	Abs_r1	Abs_t1	Abs_t2	neck_flexion	neck_bending	neck_rotation	arm_flex_r	arm_add_r	arm_rot_r	elbow_flex_r	pro_sup_r	wrist_flex_r	wrist_dev_r	arm_flex_l	arm_add_l	arm_rot_l	elbow_flex_l	pro_sup_l	wrist_flex_l	wrist_dev_l
      0.00000000	      2.26215409	     -5.89676959	     91.11964544	     -0.00449778	      1.03614135	      0.48452921	     -0.16258897	      2.03432978	      7.59179028	      0.30280107	      0.00528488	     16.26783564	      0.05796770	      0.00000000	      0.82003054	     -5.10647044	     12.79595914	      1.20356979	      0.02100626	     20.09561119	     -1.66170860	      0.00000000	      0.08675635	      0.39243471	      0.27119624	      0.16111522	      0.52193816	      0.28814600	      0.14253201	      0.95416575	      0.28814600	      0.09915383	      0.95416575	      0.23729671	      0.08056195	      0.80025285	      0.22034694	      0.04957258	      0.60788136	      0.20339718	      0.61969194	      4.43929989	      1.50831212	      0.00000000	      0.00000000	     23.57080491	      0.10916478	     -0.92746692	      2.32172626	    -10.05017858	     47.69282297	     51.55093048	     25.25678540	     -4.33306080	     12.31358539	     15.87140567	     -9.79256722	     74.89191371	     48.34462791	     68.49985259	    -13.34063348	     -3.16319876
      0.01694915	      2.49403632	     -5.83541077	     91.12659347	     -0.00414246	      1.03646045	      0.48432187	     -0.17905290	      2.29099726	      8.39727733	      0.28949590	      0.00505266	     16.22455689	     -1.14210958	      0.00000000	      0.63553349	     -5.35309751	     15.58977475	      1.24172098	      0.02167212	     18.24794521	     -6.35384086	      0.00000000	      0.08447844	      0.41743189	      0.28652370	      0.15688490	      0.55518441	      0.30443143	      0.13878962	      1.01494389	      0.30443143	      0.09655040	      1.01494389	      0.25070823	      0.07844668	      0.85122710	      0.23280050	      0.04827098	      0.64660199	      0.21489277	      0.60342102	      4.72207297	      1.59355884	      0.00000000	      0.00000000	     23.04058372	     -0.31179660	     -1.18441129	      2.28162749	    -10.02616625	     48.37588600	     51.74931654	     10.80910249	     -6.06448365	     10.84903216	     15.97252825	     -9.52971356	     75.68790981	     48.08328782	     60.31721541	    -12.36541812	     -3.78610007
      0.03389831	      2.63274234	     -5.77964083	     91.16328978	     -0.00380460	      1.03665580	      0.48417654	     -0.21252078	      2.43618034	      7.42883415	      0.29115895	      0.00508168	     16.62526063	      0.36610823	      0.00000000	      0.57132124	     -5.54616189	     14.40033735	      1.32572787	      0.02313832	     18.14719856	     -5.07278005	      0.00000000	      0.09366369	      0.42947531	      0.26737829	      0.17394285	      0.57120216	      0.28408943	      0.15388008	      1.04422626	      0.28408943	      0.10704824	      1.04422626	      0.23395600	      0.08697611	      0.87578605	      0.21724486	      0.05351943	      0.66525725	      0.20053371	      0.66903040	      4.85831058	      1.48707782	      0.00000000	      0.00000000	     22.73982017	     -0.43155006	     -1.37619879	      2.31357892	     -9.87556243	     48.40086337	     51.22887058	     12.57259719	     -6.10934983	     10.20513638	     15.69311787	     -9.48111647	     75.03428115	     48.11350387	     57.53550740	    -11.33046548	     -2.95506941
      0.05084746	      2.71691108	     -5.61505322	     91.17541408	     -0.00360636	      1.03686857	      0.48407075	     -0.39174013	      2.54466855	      8.28926467	      0.28490868	      0.00497259	     16.42168133	     -0.92146820	      0.00000000	      0.37499029	     -5.63312464	     15.41559950	      1.29022517	      0.02251868	     17.60645525	     -7.34907296	      0.00000000	      0.09924639	      0.43292504	      0.27067017	      0.18431048	      0.57579030	      0.28758705	      0.16305190	      1.05261394	      0.28758705	      0.11342870	      1.05261394	      0.23683640	      0.09216020	      0.88282074	      0.21991951	      0.05670939	      0.67060088	      0.20300263	      0.70890707	      4.89733462	      1.50538628	      0.00000000	      0.00000000	     22.39424854	     -0.55511503	     -2.05282359	      2.28041207	     -9.87229850	     48.74217722	     51.44774773	      7.09803992	     -6.81304012	      9.66827523	     16.16487286	     -9.46175495	     76.56258965	     47.89914393	     52.49766274	    -10.27454234	     -3.52703098
      0.06779661	      2.72130954	     -5.49395344	     91.29689264	     -0.00354998	      1.03703844	      0.48417604	     -0.45976008	      2.56350104	      7.10559797	      0.45403801	      0.00792446	     16.79555541	      0.58059795	      0.00000000	      0.48369523	     -5.64132418	     13.36153709	      1.64772931	      0.02875830	     18.56718111	     -4.89697640	      0.00000000	      0.11188295	      0.42669149	      0.22378597	      0.20777783	      0.56749969	      0.23777260	      0.18381250	      1.03745770	      0.23777260	      0.12787102	      1.03745770	      0.19581273	      0.10389451	      0.87010929	      0.18182610	      0.06392992	      0.66094512	      0.16783948	      0.79916872	      4.82681951	      1.24463044	      0.00000000	      0.00000000	     22.11720816	     -0.38142833	     -2.41760127	      2.37543629	     -9.77634489	     48.95344461	     51.10879493	     11.18297967	     -6.70952755	      9.56297078	     16.16718030	     -9.58692733	     76.58083159	     47.97306996	     51.85757594	     -9.96515068	     -2.90397795
      0.08474576	      2.69587399	     -5.40617948	     91.36855651	     -0.00360961	      1.03708332	      0.48367758	     -0.69572664	      2.53637392	      7.13446848	      0.29213710	      0.00509875	     16.66384404	      0.60089192	      0.00000000	      0.32032266	     -5.62760388	     13.16377072	      1.38345329	      0.02414581	     18.83692668	     -5.08683993	      0.00000000	      0.13709951	      0.42259932	      0.19011247	      0.25460750	      0.56205709	      0.20199450	      0.22524078	      1.02750798	      0.20199450	      0.15669103	      1.02750798	      0.16634841	      0.12731060	      0.86176453	      0.15446638	      0.07833866	      0.65460634	      0.14258435	      0.97928809	      4.78052800	      1.05734854	      0.00000000	      0.00000000	     22.24226588	     -0.33886866	     -2.51262658	      2.24576249	     -9.72078875	     49.04032222	     51.13134748	     11.14512800	     -6.72405169	      9.67374775	     16.06837080	     -9.64697525	     76.72466010	     47.91809195	     51.86795771	     -9.93541765	     -2.92182261
      0.10169492	      2.63018479	     -5.17839059	     91.39994215	     -0.00350635	      1.03735712	      0.48372837	     -0.97441744	      2.48895349	      6.81566716	      0.30075447	      0.00524916	     16.62711838	      0.97331822	      0.00000000	      0.07468752	     -5.59316341	     12.05511326	      1.21233420	      0.02115922	     19.34739439	     -3.77876817	      0.00000000	      0.11777724	      0.40679891	      0.17802977	      0.21872411	      0.54104255	      0.18915663	      0.19349623	      0.98909086	      0.18915663	      0.13460761	      0.98909086	      0.15577605	      0.10936795	      0.82954433	      0.14464919	      0.06729792	      0.63013151	      0.13352233	      0.84127106	      4.60179060	      0.99014816	      0.00000000	      0.00000000	     22.39495906	     -0.30454372	     -3.47455770	      2.26347300	     -9.55029072	     48.51235403	     51.06105830	     12.99067380	     -6.80056925	     11.65658876	     16.53700903	     -9.83479317	     78.02582158	     47.86621725	     52.32532328	    -10.47442636	     -4.07662852
